<?xml version="1.0" standalone="no"?>
<!DOCTYPE svg PUBLIC "-//W3C//DTD SVG 20010904//EN"
 "http://www.w3.org/TR/2001/REC-SVG-20010904/DTD/svg10.dtd">
<svg version="1.0" xmlns="http://www.w3.org/2000/svg"
 width="1142.000000pt" height="1600.000000pt" viewBox="0 0 1142.000000 1600.000000"
 preserveAspectRatio="xMidYMid meet">

<g transform="translate(0.000000,1600.000000) scale(0.100000,-0.100000)"
fill="#000000" stroke="none">
<path d="M5431 10756 c-68 -7 -106 -15 -109 -24 -3 -11 26 -304 32 -309 5 -5
222 20 229 27 5 4 6 18 2 30 -7 22 -10 23 -91 16 -83 -6 -84 -6 -90 18 -9 37
0 44 71 51 51 6 65 11 65 24 0 30 -15 36 -80 36 l-65 0 -3 32 c-3 31 -3 31 55
38 109 12 114 14 111 43 -2 14 -7 26 -13 27 -5 1 -57 -3 -114 -9z"/>
<path d="M6042 10740 c-61 -37 -68 -101 -14 -137 15 -11 47 -28 72 -38 47 -20
80 -43 80 -56 0 -33 -101 -26 -130 9 -10 13 -22 17 -39 13 -37 -10 -36 -28 1
-65 82 -82 234 -48 230 50 -2 48 -21 67 -90 95 -69 27 -95 48 -82 69 11 18 76
17 98 -3 13 -10 25 -12 49 -5 30 8 32 10 20 29 -17 29 -80 59 -124 59 -21 0
-53 -9 -71 -20z"/>
<path d="M6428 10548 c4 -177 8 -188 61 -188 21 0 36 16 80 80 30 44 58 80 63
80 4 0 8 -17 8 -37 0 -21 3 -68 6 -104 6 -65 8 -67 40 -77 39 -12 39 -12 157
160 68 100 77 118 55 118 -7 0 -22 3 -33 6 -16 4 -31 -12 -80 -85 -33 -50 -63
-91 -67 -91 -3 0 -10 50 -13 111 -7 105 -9 111 -32 120 -13 5 -27 9 -31 9 -4
0 -34 -38 -67 -85 -32 -47 -64 -84 -69 -82 -6 2 -12 50 -14 108 -2 57 -5 105
-6 106 -1 2 -16 5 -33 9 l-30 6 5 -164z"/>
<path d="M4813 10630 l-23 -9 32 -90 c18 -50 29 -93 25 -97 -4 -4 -24 4 -44
18 -120 80 -176 109 -197 104 -48 -13 -48 -16 4 -162 28 -76 52 -145 55 -152
4 -10 11 -9 35 3 l30 15 -30 82 c-17 45 -30 85 -30 90 0 16 22 7 119 -53 88
-54 103 -60 135 -53 43 7 45 -9 -23 178 -26 71 -51 131 -56 132 -6 2 -20 -1
-32 -6z"/>
<path d="M5700 10609 l0 -30 78 3 c75 3 77 4 77 28 0 24 -2 25 -77 27 l-78 2
0 -30z"/>
<path d="M5112 10565 c-34 -7 -65 -15 -68 -17 -3 -3 -2 -17 1 -31 7 -25 7 -25
58 -11 29 8 62 14 75 14 12 0 22 6 22 14 0 20 -11 46 -19 45 -3 -1 -34 -7 -69
-14z"/>
<path d="M7080 10459 c-14 -12 -63 -55 -109 -97 -46 -43 -92 -83 -102 -90 -26
-18 -24 -27 7 -41 22 -9 31 -9 50 4 21 14 28 12 98 -20 69 -32 76 -38 76 -64
0 -23 6 -31 29 -39 l28 -10 7 97 c3 53 6 131 6 173 0 76 -1 78 -30 93 -35 18
-30 19 -60 -6z m22 -145 c-2 -32 -6 -61 -8 -63 -3 -3 -25 5 -51 18 l-46 22 44
45 c24 24 48 43 54 41 6 -2 9 -28 7 -63z"/>
<path d="M4237 10382 c-23 -14 -27 -22 -23 -47 3 -16 11 -94 17 -172 7 -79 15
-143 18 -143 26 2 56 32 56 56 0 24 10 33 70 67 66 38 71 39 96 25 23 -13 29
-13 54 -1 23 13 25 17 14 28 -37 36 -255 205 -264 204 -5 0 -23 -8 -38 -17z
m109 -114 c24 -17 44 -36 44 -42 0 -15 -78 -58 -90 -51 -11 7 -14 125 -4 125
3 0 26 -14 50 -32z"/>
<path d="M7407 10238 c-69 -98 -140 -209 -136 -212 2 -2 15 -9 28 -16 21 -11
26 -9 46 16 l23 29 29 -21 c24 -18 28 -27 25 -61 -3 -35 0 -43 26 -62 17 -11
32 -21 35 -21 2 0 5 20 5 45 1 54 7 65 32 65 26 0 75 44 90 80 13 32 7 85 -13
110 -7 9 -42 37 -79 63 l-67 48 -44 -63z m116 -63 c33 -31 34 -61 5 -92 -26
-27 -50 -29 -89 -6 -36 21 -36 36 -3 85 31 45 49 47 87 13z"/>
<path d="M3809 10100 l-26 -20 37 -142 c20 -79 40 -156 44 -171 l7 -28 29 21
c24 17 28 26 24 49 -5 25 0 33 56 76 56 43 66 47 90 38 22 -8 31 -6 54 12 l28
22 -148 81 c-81 45 -152 82 -158 82 -6 0 -23 -9 -37 -20z m122 -97 c52 -28 61
-46 30 -63 -11 -5 -27 -17 -36 -26 -21 -21 -29 -11 -44 48 -19 80 -19 79 50
41z"/>
<path d="M7770 10003 c-57 -21 -86 -42 -111 -82 -58 -91 -27 -190 75 -243 134
-69 288 94 218 232 -29 59 -131 111 -182 93z m80 -78 c59 -31 69 -104 21 -157
-25 -28 -36 -33 -76 -33 -61 0 -95 35 -95 97 0 34 6 46 36 74 39 37 69 42 114
19z"/>
<path d="M3591 9926 l-23 -25 51 -95 c28 -52 48 -97 43 -100 -5 -3 -49 12 -98
34 -49 22 -94 40 -100 40 -6 0 -19 -9 -29 -20 -17 -18 -15 -22 34 -114 28 -52
47 -97 42 -100 -5 -3 -51 14 -102 38 l-94 44 -23 -21 c-12 -11 -21 -24 -20
-29 2 -4 69 -39 150 -77 l146 -69 29 30 28 30 -47 88 c-26 48 -44 90 -42 93 3
3 46 -13 95 -34 50 -21 93 -39 97 -38 4 0 17 13 29 28 l22 28 -80 143 c-43 79
-81 145 -82 147 -2 1 -14 -8 -26 -21z"/>
<path d="M8121 9696 c-15 -18 -12 -24 46 -92 51 -61 55 -79 15 -71 -16 3 -77
11 -136 17 -98 11 -109 10 -127 -6 -10 -9 -19 -21 -19 -26 0 -4 41 -58 91
-118 91 -109 92 -111 113 -93 11 10 22 19 24 20 2 1 -24 35 -59 77 -34 42 -59
79 -56 82 3 4 49 1 101 -5 128 -15 167 -14 193 7 l21 17 -82 100 c-45 55 -89
101 -98 103 -8 2 -20 -4 -27 -12z"/>
<path d="M5725 9591 c-100 -25 -158 -98 -158 -201 0 -217 284 -282 384 -88 75
145 -68 327 -226 289z"/>
<path d="M6113 9288 c-188 -192 -257 -303 -306 -498 -12 -50 -25 -92 -28 -93
-3 -1 -105 131 -226 293 -122 162 -236 314 -254 338 -23 30 -38 42 -53 40 -32
-5 -31 -40 9 -204 19 -82 43 -180 51 -219 33 -147 54 -202 108 -284 73 -109
93 -189 72 -290 -8 -38 -22 -84 -31 -103 -10 -18 -86 -100 -171 -183 -175
-171 -183 -186 -158 -283 14 -52 58 -142 70 -142 6 0 165 134 271 227 40 35
93 92 119 126 62 82 128 221 156 327 25 98 3 69 311 403 l219 237 34 183 c47
249 45 267 -21 267 -27 0 -51 -20 -172 -142z"/>
<path d="M3150 9386 c-26 -15 -48 -42 -93 -113 l-27 -42 130 -85 c71 -48 133
-86 138 -86 6 0 17 11 26 25 16 24 16 26 -8 36 -34 16 -38 33 -15 63 16 21 29
26 64 26 39 0 46 4 60 30 l16 30 -51 0 c-32 0 -52 5 -54 13 -14 53 -24 72 -47
90 -34 25 -106 32 -139 13z m100 -76 c25 -25 25 -49 3 -89 -22 -38 -30 -38
-82 -4 -46 30 -50 43 -20 84 25 35 69 39 99 9z"/>
<path d="M8317 9315 c-50 -17 -85 -50 -108 -100 -25 -53 -24 -72 7 -133 19
-37 38 -59 68 -77 54 -32 75 -31 129 2 l45 26 -31 51 c-45 76 -57 88 -74 75
-18 -15 -17 -26 8 -60 23 -33 18 -49 -15 -49 -27 0 -72 45 -81 82 -11 42 19
94 66 112 55 22 67 20 105 -18 28 -28 34 -42 34 -75 0 -34 4 -43 25 -53 34
-15 40 -6 39 57 0 67 -37 125 -98 155 -49 23 -67 24 -119 5z"/>
<path d="M2870 8924 c-6 -14 -10 -30 -10 -36 0 -10 60 -80 181 -212 l46 -50
13 23 c10 19 10 32 0 60 -11 33 -9 42 20 104 28 58 36 67 60 67 25 0 50 30 50
60 0 6 -71 10 -175 10 l-175 0 -10 -26z m216 -47 c5 -4 -41 -97 -48 -97 -12 0
-87 97 -80 105 6 6 121 0 128 -8z"/>
<path d="M8350 8855 c0 -4 7 -19 15 -35 11 -22 23 -30 43 -30 24 0 30 -8 56
-72 27 -65 28 -73 15 -97 -11 -19 -12 -33 -5 -53 5 -16 13 -28 16 -28 4 0 60
56 124 124 l117 125 -15 35 -15 36 -175 0 c-97 0 -176 -2 -176 -5z m280 -73
c0 -11 -88 -97 -94 -91 -6 7 -36 81 -36 90 0 5 29 9 65 9 36 0 65 -4 65 -8z"/>
<path d="M2722 8554 c-10 -35 -9 -40 39 -110 68 -102 66 -107 -30 -78 -29 8
-55 13 -57 11 -3 -3 -6 -17 -7 -32 -2 -26 2 -29 78 -52 111 -33 219 -62 222
-59 2 1 6 17 9 34 6 29 4 32 -19 32 -18 0 -34 12 -56 42 -38 51 -33 57 64 83
60 17 64 19 73 56 5 22 7 39 3 39 -3 0 -49 -16 -101 -35 -52 -19 -99 -35 -105
-35 -5 0 -29 32 -53 70 -24 39 -44 70 -46 70 -1 0 -8 -16 -14 -36z"/>
<path d="M8670 8453 c-74 -19 -137 -37 -138 -38 -2 -2 -1 -18 3 -35 6 -26 10
-30 28 -24 41 13 50 9 59 -25 8 -30 6 -37 -21 -65 -28 -29 -30 -34 -20 -68
l10 -37 35 39 c36 39 36 39 67 24 44 -23 111 -14 147 21 33 32 44 74 31 124
-5 20 -15 55 -21 79 -7 29 -16 42 -28 41 -9 0 -78 -16 -152 -36z m134 -59 c12
-32 6 -81 -13 -98 -40 -36 -105 0 -113 63 -2 20 4 26 32 37 49 18 87 17 94 -2z"/>
<path d="M5990 8211 c-52 -17 -130 -58 -130 -68 0 -10 251 -301 292 -339 105
-97 237 -168 388 -208 l88 -24 249 -230 c136 -126 262 -241 278 -254 25 -21
62 -31 225 -61 224 -41 243 -39 248 24 3 33 -4 42 -130 165 -143 140 -218 196
-331 249 -64 30 -170 64 -250 80 -15 3 -25 9 -22 14 3 5 156 122 341 261 277
209 335 256 332 273 -3 19 -9 22 -48 20 -25 0 -110 -17 -190 -36 -80 -20 -196
-48 -259 -63 -94 -22 -127 -36 -180 -72 -135 -90 -211 -112 -316 -92 -99 19
-144 52 -288 203 -124 132 -183 177 -227 176 -8 0 -40 -8 -70 -18z"/>
<path d="M3925 8126 c-14 -14 -25 -33 -25 -42 0 -20 221 -247 302 -310 107
-84 269 -156 386 -172 28 -5 47 -12 47 -20 0 -7 -148 -124 -330 -260 -280
-209 -330 -251 -330 -272 0 -35 25 -36 157 -5 62 15 178 43 258 62 181 43 217
56 282 104 74 56 143 79 235 79 66 0 85 -4 147 -34 59 -28 87 -51 160 -131 49
-53 98 -107 108 -121 11 -13 39 -38 64 -55 63 -43 121 -42 220 5 71 34 75 37
61 56 -52 75 -271 319 -321 359 -104 83 -227 143 -366 179 l-69 18 -277 254
-276 253 -67 13 c-36 7 -118 22 -181 34 -63 11 -125 23 -138 26 -15 3 -30 -4
-47 -20z"/>
<path d="M2774 8070 c-55 -22 -70 -95 -29 -135 36 -37 86 -34 119 6 14 17 26
37 26 44 0 34 -22 67 -55 80 -19 8 -36 15 -37 14 -2 0 -13 -4 -24 -9z"/>
<path d="M8785 8072 c-63 -13 -86 -92 -40 -137 51 -52 135 -17 135 55 0 56
-43 93 -95 82z"/>
<path d="M5653 7770 c-79 -45 -116 -111 -115 -205 1 -93 62 -183 146 -215 40
-15 131 -12 174 6 153 63 191 267 71 381 -75 71 -186 84 -276 33z"/>
<path d="M3901 7770 c-50 -12 -111 -60 -135 -105 -33 -62 -28 -153 10 -207 71
-102 206 -122 299 -46 125 103 85 308 -69 353 -54 16 -56 16 -105 5z"/>
<path d="M7544 7770 c-93 -22 -159 -105 -158 -200 1 -119 85 -203 204 -203 61
0 102 17 141 60 41 43 59 87 59 143 0 90 -59 170 -144 195 -54 16 -56 16 -102
5z"/>
<path d="M8808 7733 l-158 -4 0 -29 c0 -27 3 -30 31 -30 30 0 99 -45 99 -65 0
-5 -29 -28 -65 -50 -63 -39 -65 -41 -65 -83 l0 -43 68 47 c37 27 78 56 91 66
30 23 30 23 66 -8 40 -35 91 -74 96 -74 3 0 3 17 0 38 -3 31 -14 46 -72 95
-38 32 -69 62 -69 67 0 6 32 10 70 10 l70 0 0 35 c0 19 -1 34 -2 33 -2 -1 -74
-4 -160 -5z"/>
<path d="M2575 7712 c-3 -3 -5 -18 -5 -34 l0 -28 94 0 c52 0 97 -4 100 -8 2
-4 -40 -43 -95 -87 -90 -71 -99 -81 -99 -112 l0 -33 164 0 163 0 -1 30 -1 30
-97 0 c-72 0 -98 3 -97 13 0 6 43 46 95 87 91 71 95 76 92 110 l-3 35 -152 1
c-84 1 -155 -1 -158 -4z"/>
<path d="M6304 7452 c-17 -15 -71 -60 -120 -101 -248 -206 -336 -333 -393
-568 -18 -71 -19 -72 -172 -239 -262 -285 -359 -394 -359 -402 0 -4 -16 -93
-35 -197 -32 -173 -34 -190 -20 -212 11 -16 25 -23 49 -23 30 0 48 15 177 148
187 193 255 307 304 510 9 40 21 72 26 70 4 -2 120 -151 256 -333 137 -181
255 -331 263 -332 8 -2 21 1 29 6 16 11 17 7 -69 370 -54 226 -62 247 -133
353 -77 114 -86 233 -27 354 24 50 57 87 169 193 153 145 176 179 169 251 -5
48 -60 180 -75 180 -4 -1 -22 -13 -39 -28z"/>
<path d="M8639 7301 c0 -3 -2 -18 -4 -33 -3 -25 -1 -27 43 -33 69 -10 84 -15
79 -29 -3 -7 -8 -38 -12 -70 -4 -31 -10 -58 -14 -61 -4 -2 -33 0 -64 4 -39 5
-57 4 -57 -3 0 -6 -3 -20 -6 -32 -5 -20 2 -22 151 -44 86 -12 158 -21 160 -19
2 2 6 16 10 31 6 23 3 28 -17 32 -18 4 -79 13 -107 16 -6 0 7 129 15 141 4 7
29 8 69 4 62 -7 62 -7 69 20 4 15 5 29 3 32 -3 2 -33 8 -68 14 -208 31 -249
36 -250 30z"/>
<path d="M2762 7195 c-74 -47 -138 -85 -143 -85 -16 0 -6 -82 11 -91 19 -10
320 -82 325 -77 1 1 0 18 -2 36 -4 22 -11 32 -23 32 -27 0 -36 18 -50 100 -12
72 -12 75 9 88 14 10 21 25 21 48 0 19 -3 34 -7 34 -5 0 -68 -38 -141 -85z
m63 -82 c4 -16 8 -36 10 -45 2 -10 0 -20 -5 -23 -13 -8 -120 17 -120 29 0 12
78 66 97 66 7 0 15 -12 18 -27z"/>
<path d="M8565 6864 c-5 -27 -2 -41 10 -54 15 -17 15 -24 -7 -97 -21 -70 -26
-78 -50 -81 -19 -2 -29 -12 -37 -34 -6 -17 -10 -33 -8 -34 3 -4 61 2 262 27
43 5 83 13 87 17 4 4 10 21 13 37 6 32 10 27 -201 204 l-62 51 -7 -36z m137
-158 c21 -17 38 -36 38 -42 0 -12 -107 -27 -123 -17 -9 5 -5 32 13 78 11 29
15 28 72 -19z"/>
<path d="M2832 6762 l-143 -47 6 -29 c3 -16 7 -31 8 -33 2 -2 30 6 62 17 32
11 62 17 67 12 12 -12 48 -124 43 -133 -3 -4 -31 -16 -61 -26 -54 -17 -55 -18
-50 -47 4 -16 7 -31 9 -32 2 -3 228 68 279 88 23 9 27 14 21 37 -3 14 -8 28
-10 30 -2 3 -28 -3 -59 -14 -33 -11 -58 -15 -63 -9 -10 10 -41 109 -41 130 0
6 21 17 48 24 26 7 50 16 54 19 10 9 -3 61 -16 61 -6 -1 -75 -22 -154 -48z"/>
<path d="M8380 6362 c-49 -108 -47 -168 5 -222 41 -42 106 -66 152 -56 63 14
93 43 135 133 23 48 37 88 32 90 -6 2 -70 32 -143 68 -73 36 -136 65 -139 65
-4 0 -23 -35 -42 -78z m163 -49 c42 -20 77 -43 77 -50 0 -23 -31 -77 -54 -95
-54 -44 -156 7 -156 78 0 38 28 104 44 104 6 0 46 -17 89 -37z"/>
<path d="M3061 6275 c-62 -30 -117 -55 -121 -55 -4 0 -16 20 -27 45 -19 48
-27 52 -56 31 -16 -13 -14 -22 42 -139 53 -113 61 -125 81 -120 32 8 35 28 11
69 -12 19 -19 40 -15 45 3 5 53 33 112 61 59 29 109 54 111 55 3 2 -2 17 -10
33 l-14 30 -114 -55z"/>
<path d="M8208 6042 l-17 -28 47 -29 c26 -16 84 -53 130 -83 85 -55 103 -58
121 -24 9 18 -3 28 -122 103 -72 46 -134 85 -137 87 -3 1 -13 -10 -22 -26z"/>
<path d="M3233 6050 c-44 -18 -55 -82 -28 -160 21 -59 20 -90 -3 -90 -25 0
-53 32 -61 71 -3 17 -16 38 -29 47 -20 13 -22 12 -32 -13 -33 -87 83 -204 166
-166 50 22 53 54 17 191 -12 43 -7 60 17 60 27 0 64 -64 57 -100 -5 -23 -1
-31 20 -45 29 -19 41 -10 44 35 6 75 -30 142 -86 166 -39 16 -51 16 -82 4z"/>
<path d="M5720 5951 c-113 -35 -172 -133 -149 -248 18 -91 101 -155 199 -155
58 1 89 13 133 51 46 41 67 88 67 148 -1 92 -55 168 -143 197 -52 17 -69 18
-107 7z"/>
<path d="M3465 5722 c-27 -26 -80 -75 -117 -108 l-68 -61 24 -22 24 -22 65 60
c35 34 70 61 76 61 13 0 9 -52 -15 -180 -14 -74 -14 -75 10 -99 l25 -24 43 36
c24 20 77 67 118 106 65 60 73 72 64 88 -19 31 -37 25 -104 -37 -36 -32 -68
-59 -72 -60 -11 0 -9 21 12 145 18 105 18 111 1 134 -9 14 -21 26 -27 28 -5 1
-31 -19 -59 -45z"/>
<path d="M7984 5716 c-61 -27 -114 -109 -114 -177 0 -23 68 -101 85 -97 6 2
33 27 59 57 43 49 46 55 32 69 -14 15 -19 13 -50 -17 -39 -37 -56 -34 -56 11
0 43 56 98 102 98 57 0 108 -54 108 -114 0 -33 -45 -84 -83 -94 -31 -8 -44
-29 -34 -57 10 -25 87 1 130 44 69 68 70 163 5 230 -56 58 -121 74 -184 47z"/>
<path d="M7706 5441 c-17 -18 -17 -22 -2 -43 22 -31 20 -45 -9 -64 -23 -15
-31 -15 -66 -4 -38 13 -41 12 -66 -13 l-26 -26 46 -12 c43 -10 47 -14 47 -41
0 -37 22 -88 48 -112 30 -26 101 -32 138 -12 16 9 51 36 79 60 l49 44 -39 44
c-22 24 -69 79 -105 121 -35 42 -67 77 -71 77 -3 0 -14 -9 -23 -19z m103 -170
c17 -21 31 -46 31 -54 0 -16 -58 -57 -79 -57 -20 0 -61 48 -61 71 0 25 46 79
66 79 7 0 26 -18 43 -39z"/>
<path d="M3767 5283 l-47 -168 27 -22 c16 -13 31 -23 34 -23 3 0 69 34 146 75
78 41 146 75 152 75 18 0 12 14 -15 34 -21 15 -30 16 -50 7 -21 -9 -31 -5 -90
42 -59 47 -65 55 -60 80 5 22 0 33 -17 48 -12 10 -24 18 -27 19 -3 0 -27 -75
-53 -167z m126 -25 c15 -11 27 -25 27 -32 0 -14 -100 -69 -109 -60 -5 4 17
101 26 117 5 8 13 4 56 -25z"/>
<path d="M7408 5203 c-21 -14 -26 -22 -21 -44 5 -25 -1 -30 -66 -69 -64 -38
-75 -41 -95 -30 -19 10 -29 9 -55 -5 l-33 -16 143 -100 c78 -54 147 -99 154
-99 6 0 21 7 34 16 22 15 23 21 17 78 -4 33 -13 99 -21 146 -8 47 -16 98 -17
113 -3 31 -4 32 -40 10z m-4 -165 c14 -68 14 -98 2 -98 -17 0 -96 57 -96 69 0
11 59 49 77 50 7 1 15 -9 17 -21z"/>
<path d="M4154 5136 c-35 -15 -44 -32 -44 -82 0 -27 11 -45 50 -89 56 -62 65
-95 25 -95 -26 0 -75 39 -75 60 0 5 -16 10 -35 10 -39 0 -42 -8 -20 -53 31
-65 126 -103 183 -73 68 35 65 89 -9 170 -52 57 -64 96 -29 96 32 0 71 -31 86
-67 11 -24 21 -33 39 -33 31 0 36 10 25 50 -23 81 -126 136 -196 106z"/>
<path d="M6988 4963 c-23 -6 -23 -11 9 -88 14 -36 23 -68 19 -72 -3 -4 -35 21
-69 55 l-63 63 -37 -16 -37 -15 0 -85 c0 -46 -4 -86 -9 -89 -5 -3 -22 26 -37
64 -29 70 -39 79 -74 60 -17 -9 -14 -20 43 -159 l61 -150 30 13 c28 11 32 18
38 67 3 30 6 89 7 131 1 42 6 80 11 83 6 4 25 -8 43 -27 18 -18 60 -59 95 -90
60 -55 63 -57 95 -46 17 6 33 12 34 13 2 1 -23 66 -55 146 -57 142 -65 153
-104 142z"/>
<path d="M4639 4879 c-18 -7 -32 -23 -42 -52 -26 -68 -26 -67 43 -93 81 -30
90 -30 90 -1 0 19 -8 26 -40 36 -44 13 -48 21 -23 46 23 23 90 12 123 -21 19
-19 25 -35 25 -70 0 -39 -5 -50 -33 -75 -47 -42 -93 -40 -139 6 -30 30 -41 35
-64 30 -34 -8 -34 -7 -14 -45 45 -88 181 -116 257 -52 36 31 67 94 68 138 0
51 -40 115 -90 141 -46 24 -113 29 -161 12z"/>
<path d="M6385 4770 c-113 -35 -156 -170 -85 -269 30 -43 69 -61 131 -61 106
0 176 75 166 176 -7 63 -31 108 -72 134 -38 23 -100 32 -140 20z m122 -95 c50
-58 19 -157 -53 -171 -46 -8 -79 7 -104 48 -48 80 4 164 95 154 27 -3 47 -13
62 -31z"/>
<path d="M5079 4738 c-55 -31 -82 -87 -77 -157 7 -98 65 -151 166 -151 70 0
96 12 132 61 26 36 30 51 30 103 0 44 -6 70 -20 94 -41 67 -159 92 -231 50z
m153 -67 c29 -26 33 -35 32 -77 -1 -40 -6 -52 -33 -76 -43 -39 -92 -38 -132 1
-23 23 -29 38 -29 71 0 98 92 144 162 81z"/>
<path d="M5962 4700 c-122 -18 -177 -128 -119 -240 37 -73 102 -93 242 -74
l47 7 -6 111 c-4 61 -9 132 -12 159 l-6 47 -46 -1 c-26 -1 -71 -5 -100 -9z
m89 -85 c4 -17 7 -63 8 -104 l1 -73 -62 4 c-51 4 -65 9 -85 32 -51 60 -17 151
63 166 57 12 68 8 75 -25z"/>
<path d="M5547 4640 c-5 -60 -22 -87 -145 -232 -14 -17 -12 -18 26 -18 38 0
43 3 88 65 26 36 51 65 55 65 4 0 26 -33 48 -74 37 -67 44 -74 76 -78 19 -2
35 -2 35 2 0 3 -28 52 -61 110 -58 101 -60 107 -57 163 l4 57 -31 0 c-32 0
-32 0 -38 -60z"/>
</g>
</svg>
